<?xml version="1.0" standalone="no"?>
<!DOCTYPE svg PUBLIC "-//W3C//DTD SVG 20010904//EN"
 "http://www.w3.org/TR/2001/REC-SVG-20010904/DTD/svg10.dtd">
<svg version="1.0" xmlns="http://www.w3.org/2000/svg"
 width="1280.000000pt" height="1280.000000pt" viewBox="0 0 1280.000000 1280.000000"
 preserveAspectRatio="xMidYMid meet">
<metadata>
Created by potrace 1.15, written by Peter Selinger 2001-2017
</metadata>
<g transform="translate(0.000000,1280.000000) scale(0.100000,-0.100000)"
fill="#000000" stroke="none">
<path d="M6928 10823 l-153 -308 -42 -5 c-40 -5 -45 -9 -139 -135 -53 -71
-124 -159 -158 -194 -60 -62 -139 -111 -181 -111 -28 0 -77 -135 -184 -502
-112 -383 -127 -422 -271 -703 -71 -137 -146 -295 -168 -350 -22 -55 -73 -174
-112 -265 -40 -91 -96 -223 -125 -293 -29 -71 -56 -131 -59 -134 -12 -13 -26
53 -26 126 0 42 -9 149 -20 237 -11 87 -24 212 -30 278 l-10 118 30 53 c17 29
78 122 137 207 167 241 198 288 236 364 50 99 70 182 71 295 1 69 6 102 16
114 20 24 82 50 152 65 120 24 97 81 -50 121 -51 15 -76 29 -109 61 -38 37
-49 43 -85 42 -38 -1 -40 -1 -18 11 l23 12 -27 7 c-39 10 -99 -26 -186 -109
-41 -39 -103 -93 -138 -119 -112 -85 -168 -178 -250 -417 -115 -334 -202 -546
-312 -759 -68 -131 -113 -231 -116 -255 l-5 -40 21 35 c12 19 18 26 15 15 -23
-75 -13 -159 26 -208 28 -37 88 -54 129 -37 37 15 130 115 225 239 38 49 72
88 76 85 14 -8 29 -105 29 -182 0 -42 5 -118 10 -167 34 -320 32 -550 -4 -654
-11 -33 -11 -43 -1 -51 25 -21 54 -108 65 -195 18 -145 -13 -421 -76 -688 -28
-115 -37 -127 -100 -127 -28 0 -30 -14 -13 -120 10 -64 8 -77 -20 -184 -43
-161 -148 -456 -162 -456 -13 0 -22 108 -16 188 3 55 13 98 36 151 17 41 31
75 31 77 0 2 -13 4 -28 4 -20 0 -32 7 -39 23 -15 33 -31 119 -38 212 -4 44
-22 145 -41 225 -19 80 -34 163 -34 184 0 26 -12 60 -35 101 -19 34 -37 81
-41 105 -5 33 -17 53 -51 85 -53 51 -56 84 -16 197 23 64 25 80 14 90 -10 11
-19 6 -48 -27 -54 -61 -93 -122 -93 -143 0 -34 26 -94 73 -172 84 -138 128
-278 168 -530 31 -192 33 -223 16 -256 -13 -25 -12 -31 11 -77 l26 -49 -2
-372 c-2 -204 -7 -409 -13 -456 -24 -202 -126 -527 -194 -616 -29 -37 -31 -51
-11 -73 12 -14 11 -26 -5 -86 -16 -63 -17 -88 -9 -240 10 -203 21 -257 96
-480 50 -151 58 -183 66 -290 12 -173 62 -487 129 -815 l57 -285 -2 -310 c-1
-171 -5 -316 -9 -322 -5 -7 -14 -13 -22 -13 -25 0 -25 -17 2 -78 l26 -61 -27
-138 c-24 -128 -25 -145 -15 -231 9 -74 8 -142 -5 -340 -16 -226 -16 -256 -2
-345 19 -113 20 -195 5 -246 -9 -30 -7 -44 11 -83 l21 -48 171 0 170 0 -5 23
c-3 12 -11 87 -17 167 -6 80 -20 242 -31 360 -24 269 -24 362 1 785 13 234 19
441 18 665 -1 179 -1 387 -1 463 l2 137 -23 0 c-19 0 -28 10 -44 48 -67 158
-116 433 -132 746 -10 191 -10 199 11 244 15 33 22 72 24 132 5 142 40 244
117 342 32 40 39 55 31 68 -8 11 -7 23 3 41 7 13 13 40 14 61 0 25 23 81 73
180 40 78 86 175 102 213 16 39 41 80 56 93 15 12 30 36 34 52 5 23 12 30 30
30 21 0 35 17 35 40 0 5 -13 24 -29 43 l-30 33 33 75 c56 129 163 289 275 411
57 62 61 86 23 135 -16 20 -21 21 -64 12 -42 -9 -52 -17 -97 -79 -57 -78 -101
-108 -136 -92 -16 7 -55 76 -131 228 -104 207 -109 220 -108 278 1 76 27 155
104 311 73 150 180 314 247 380 74 73 186 135 436 242 302 129 444 211 1002
583 182 121 368 234 531 324 214 117 251 140 247 157 -3 10 -13 19 -22 19 -33
0 -127 -33 -201 -70 -116 -58 -476 -288 -650 -415 -238 -173 -332 -231 -408
-251 -88 -23 -115 -37 -192 -99 -36 -29 -90 -65 -120 -80 -141 -72 -473 -219
-539 -241 -88 -28 -123 -58 -213 -186 -34 -48 -63 -86 -65 -84 -2 1 6 106 18
232 17 181 20 272 16 436 -3 113 -1 239 4 280 12 101 95 398 134 484 37 82 61
103 158 140 141 54 349 193 445 299 28 31 83 98 121 150 39 52 103 137 141
189 102 138 170 206 203 206 23 0 27 4 27 29 0 17 -10 42 -24 58 l-25 28 -46
-45 c-26 -25 -79 -90 -118 -145 -90 -127 -153 -195 -181 -195 -17 0 -32 -20
-68 -88 -71 -132 -136 -192 -338 -313 -95 -56 -125 -70 -152 -67 -32 3 -33 4
-31 43 6 88 44 172 276 615 104 200 217 520 302 860 20 80 45 159 56 177 11
18 55 61 97 96 101 84 417 413 465 485 50 75 102 183 176 371 34 84 72 174 85
200 25 48 21 81 -9 81 -9 0 -75 -121 -167 -307z m-1703 -5218 c71 -146 97
-224 102 -315 5 -66 2 -78 -17 -102 -12 -16 -28 -28 -35 -28 -26 0 -75 52
-124 134 -27 45 -59 90 -70 100 -21 19 -21 19 -21 0 1 -33 35 -96 104 -187 36
-49 69 -100 72 -114 28 -109 -165 -615 -313 -820 -47 -65 -51 -76 -42 -100 9
-24 6 -31 -34 -71 -34 -34 -49 -43 -65 -38 -29 10 -36 56 -29 185 10 177 56
390 168 779 27 95 72 266 99 379 48 196 72 269 107 322 15 24 16 24 30 5 8
-10 38 -68 68 -129z"/>
<path d="M1027 5853 c-4 -3 -7 -22 -7 -42 0 -28 11 -49 50 -96 59 -70 131
-205 156 -290 18 -62 23 -173 10 -212 -15 -45 -68 -25 -186 71 -84 69 -135 95
-152 78 -16 -16 -5 -27 116 -117 136 -101 157 -124 236 -249 89 -143 138 -205
280 -349 108 -112 149 -145 305 -250 208 -139 270 -198 344 -320 152 -252 342
-733 455 -1152 30 -109 62 -198 101 -280 73 -155 135 -303 135 -324 0 -9 -16
-38 -35 -65 -45 -64 -49 -128 -9 -175 14 -17 30 -31 35 -31 6 0 31 16 57 36
l47 35 18 -23 c56 -68 138 -283 199 -522 27 -103 32 -140 33 -251 l1 -130 79
-237 c88 -263 85 -233 35 -371 -25 -71 -20 -92 27 -107 31 -11 38 -10 64 9 15
11 31 21 33 21 11 0 44 -77 56 -130 29 -124 86 -183 289 -295 l154 -86 69 3
68 3 -59 79 c-33 44 -83 121 -112 173 -30 51 -79 121 -110 156 -40 45 -79 108
-139 226 l-84 165 -10 123 c-9 119 -10 122 -31 117 -19 -5 -25 1 -38 34 -27
68 -45 153 -62 292 -8 74 -20 159 -26 188 -6 30 -76 234 -155 455 -134 373
-144 407 -144 472 0 80 29 285 59 423 25 116 20 139 -26 107 -36 -25 -49 5
-64 147 -5 56 -27 159 -49 236 -99 349 -120 615 -61 790 22 63 20 73 -7 49
-29 -26 -38 -21 -56 35 -28 89 -39 182 -27 240 11 51 11 52 -19 80 -44 40 -59
83 -70 209 -12 141 -31 199 -77 239 -34 30 -36 31 -55 13 -46 -42 -51 -66 -37
-196 11 -109 11 -121 -4 -132 -27 -20 -21 -43 43 -170 l61 -120 24 -226 c29
-277 46 -403 90 -674 33 -203 46 -271 99 -515 32 -151 41 -244 27 -296 -15
-57 -35 -72 -62 -48 -27 24 -82 143 -104 224 -35 132 -306 891 -345 969 -67
134 -93 225 -87 304 4 61 1 74 -25 122 -39 72 -60 178 -57 293 2 86 0 94 -21
109 -41 29 -52 2 -61 -157 -10 -177 -11 -180 -54 -180 -25 0 -55 15 -112 55
-43 30 -112 78 -153 106 -248 172 -417 334 -489 469 -28 52 -33 75 -46 211
-33 334 -82 494 -182 591 -51 49 -127 81 -146 61z"/>
<path d="M5472 710 c-32 -14 -37 -35 -19 -83 70 -186 200 -523 221 -569 l26
-58 100 0 c55 0 100 2 100 6 0 3 -29 59 -65 124 -60 108 -69 133 -101 272 -43
187 -69 271 -92 291 -21 19 -138 31 -170 17z"/>
</g>
</svg>
