<svg width="1280" height="1280" viewBox="0 0 1280 1280" fill="none" xmlns="http://www.w3.org/2000/svg">
<g clip-path="url(#clip0)">
<path d="M692.8 197.7L677.5 228.5L673.3 229C669.3 229.5 668.8 229.9 659.4 242.5C654.1 249.6 647 258.4 643.6 261.9C637.6 268.1 629.7 273 625.5 273C622.7 273 617.8 286.5 607.1 323.2C595.9 361.5 594.4 365.4 580 393.5C572.9 407.2 565.4 423 563.2 428.5C561 434 555.9 445.9 552 455C548 464.1 542.4 477.3 539.5 484.3C536.6 491.4 533.9 497.4 533.6 497.7C532.4 499 531 492.4 531 485.1C531 480.9 530.1 470.2 529 461.4C527.9 452.7 526.6 440.2 526 433.6L525 421.8L528 416.5C529.7 413.6 535.8 404.3 541.7 395.8C558.4 371.7 561.5 367 565.3 359.4C570.3 349.5 572.3 341.2 572.4 329.9C572.5 323 573 319.7 574 318.5C576 316.1 582.2 313.5 589.2 312C601.2 309.6 598.9 303.9 584.2 299.9C579.1 298.4 576.6 297 573.3 293.8C569.5 290.1 568.4 289.5 564.8 289.6C561 289.7 560.8 289.7 563 288.5L565.3 287.3L562.6 286.6C558.7 285.6 552.7 289.2 544 297.5C539.9 301.4 533.7 306.8 530.2 309.4C519 317.9 513.4 327.2 505.2 351.1C493.7 384.5 485 405.7 474 427C467.2 440.1 462.7 450.1 462.4 452.5L461.9 456.5L464 453C465.2 451.1 465.8 450.4 465.5 451.5C463.2 459 464.2 467.4 468.1 472.3C470.9 476 476.9 477.7 481 476C484.7 474.5 494 464.5 503.5 452.1C507.3 447.2 510.7 443.3 511.1 443.6C512.5 444.4 514 454.1 514 461.8C514 466 514.5 473.6 515 478.5C518.4 510.5 518.2 533.5 514.6 543.9C513.5 547.2 513.5 548.2 514.5 549C517 551.1 519.9 559.8 521 568.5C522.8 583 519.7 610.6 513.4 637.3C510.6 648.8 509.7 650 503.4 650C500.6 650 500.4 651.4 502.1 662C503.1 668.4 502.9 669.7 500.1 680.4C495.8 696.5 485.3 726 483.9 726C482.6 726 481.7 715.2 482.3 707.2C482.6 701.7 483.6 697.4 485.9 692.1C487.6 688 489 684.6 489 684.4C489 684.2 487.7 684 486.2 684C484.2 684 483 683.3 482.3 681.7C480.8 678.4 479.2 669.8 478.5 660.5C478.1 656.1 476.3 646 474.4 638C472.5 630 471 621.7 471 619.6C471 617 469.8 613.6 467.5 609.5C465.6 606.1 463.8 601.4 463.4 599C462.9 595.7 461.7 593.7 458.3 590.5C453 585.4 452.7 582.1 456.7 570.8C459 564.4 459.2 562.8 458.1 561.8C457.1 560.7 456.2 561.2 453.3 564.5C447.9 570.6 444 576.7 444 578.8C444 582.2 446.6 588.2 451.3 596C459.7 609.8 464.1 623.8 468.1 649C471.2 668.2 471.4 671.3 469.7 674.6C468.4 677.1 468.5 677.7 470.8 682.3L473.4 687.2L473.2 724.4C473 744.8 472.5 765.3 471.9 770C469.5 790.2 459.3 822.7 452.5 831.6C449.6 835.3 449.4 836.7 451.4 838.9C452.6 840.3 452.5 841.5 450.9 847.5C449.3 853.8 449.2 856.3 450 871.5C451 891.8 452.1 897.2 459.6 919.5C464.6 934.6 465.4 937.8 466.2 948.5C467.4 965.8 472.4 997.2 479.1 1030L484.8 1058.5L484.6 1089.5C484.5 1106.6 484.1 1121.1 483.7 1121.7C483.2 1122.4 482.3 1123 481.5 1123C479 1123 479 1124.7 481.7 1130.8L484.3 1136.9L481.6 1150.7C479.2 1163.5 479.1 1165.2 480.1 1173.8C481 1181.2 480.9 1188 479.6 1207.8C478 1230.4 478 1233.4 479.4 1242.3C481.3 1253.6 481.4 1261.8 479.9 1266.9C479 1269.9 479.2 1271.3 481 1275.2L483.1 1280H500.2H517.2L516.7 1277.7C516.4 1276.5 515.6 1269 515 1261C514.4 1253 513 1236.8 511.9 1225C509.5 1198.1 509.5 1188.8 512 1146.5C513.3 1123.1 513.9 1102.4 513.8 1080C513.7 1062.1 513.7 1041.3 513.7 1033.7L513.9 1020H511.6C509.7 1020 508.8 1019 507.2 1015.2C500.5 999.4 495.6 971.9 494 940.6C493 921.5 493 920.7 495.1 916.2C496.6 912.9 497.3 909 497.5 903C498 888.8 501.5 878.6 509.2 868.8C512.4 864.8 513.1 863.3 512.3 862C511.5 860.9 511.6 859.7 512.6 857.9C513.3 856.6 513.9 853.9 514 851.8C514 849.3 516.3 843.7 521.3 833.8C525.3 826 529.9 816.3 531.5 812.5C533.1 808.6 535.6 804.5 537.1 803.2C538.6 802 540.1 799.6 540.5 798C541 795.7 541.7 795 543.5 795C545.6 795 547 793.3 547 791C547 790.5 545.7 788.6 544.1 786.7L541.1 783.4L544.4 775.9C550 763 560.7 747 571.9 734.8C577.6 728.6 578 726.2 574.2 721.3C572.6 719.3 572.1 719.2 567.8 720.1C563.6 721 562.6 721.8 558.1 728C552.4 735.8 548 738.8 544.5 737.2C542.9 736.5 539 729.6 531.4 714.4C521 693.7 520.5 692.4 520.6 686.6C520.7 679 523.3 671.1 531 655.5C538.3 640.5 549 624.1 555.7 617.5C563.1 610.2 574.3 604 599.3 593.3C629.5 580.4 643.7 572.2 699.5 535C717.7 522.9 736.3 511.6 752.6 502.6C774 490.9 777.7 488.6 777.3 486.9C777 485.9 776 485 775.1 485C771.8 485 762.4 488.3 755 492C743.4 497.8 707.4 520.8 690 533.5C666.2 550.8 656.8 556.6 649.2 558.6C640.4 560.9 637.7 562.3 630 568.5C626.4 571.4 621 575 618 576.5C603.9 583.7 570.7 598.4 564.1 600.6C555.3 603.4 551.8 606.4 542.8 619.2C539.4 624 536.5 627.8 536.3 627.6C536.1 627.5 536.9 617 538.1 604.4C539.8 586.3 540.1 577.2 539.7 560.8C539.4 549.5 539.6 536.9 540.1 532.8C541.3 522.7 549.6 493 553.5 484.4C557.2 476.2 559.6 474.1 569.3 470.4C583.4 465 604.2 451.1 613.8 440.5C616.6 437.4 622.1 430.7 625.9 425.5C629.8 420.3 636.2 411.8 640 406.6C650.2 392.8 657 386 660.3 386C662.6 386 663 385.6 663 383.1C663 381.4 662 378.9 660.6 377.3L658.1 374.5L653.5 379C650.9 381.5 645.6 388 641.7 393.5C632.7 406.2 626.4 413 623.6 413C621.9 413 620.4 415 616.8 421.8C609.7 435 603.2 441 583 453.1C573.5 458.7 570.5 460.1 567.8 459.8C564.6 459.5 564.5 459.4 564.7 455.5C565.3 446.7 569.1 438.3 592.3 394C602.7 374 614 342 622.5 308C624.5 300 627 292.1 628.1 290.3C629.2 288.5 633.6 284.2 637.8 280.7C647.9 272.3 679.5 239.4 684.3 232.2C689.3 224.7 694.5 213.9 701.9 195.1C705.3 186.7 709.1 177.7 710.4 175.1C712.9 170.3 712.5 167 709.5 167C708.6 167 702 179.1 692.8 197.7ZM522.5 719.5C529.6 734.1 532.2 741.9 532.7 751C533.2 757.6 532.9 758.8 531 761.2C529.8 762.8 528.2 764 527.5 764C524.9 764 520 758.8 515.1 750.6C512.4 746.1 509.2 741.6 508.1 740.6C506 738.7 506 738.7 506 740.6C506.1 743.9 509.5 750.2 516.4 759.3C520 764.2 523.3 769.3 523.6 770.7C526.4 781.6 507.1 832.2 492.3 852.7C487.6 859.2 487.2 860.3 488.1 862.7C489 865.1 488.7 865.8 484.7 869.8C481.3 873.2 479.8 874.1 478.2 873.6C475.3 872.6 474.6 868 475.3 855.1C476.3 837.4 480.9 816.1 492.1 777.2C494.8 767.7 499.3 750.6 502 739.3C506.8 719.7 509.2 712.4 512.7 707.1C514.2 704.7 514.3 704.7 515.7 706.6C516.5 707.6 519.5 713.4 522.5 719.5Z" fill="#05192D"/>
<path d="M102.7 694.7C102.3 695 102 696.9 102 698.9C102 701.7 103.1 703.8 107 708.5C112.9 715.5 120.1 729 122.6 737.5C124.4 743.7 124.9 754.8 123.6 758.7C122.1 763.2 116.8 761.2 105 751.6C96.6 744.7 91.5 742.1 89.8 743.8C88.2 745.4 89.3 746.5 101.4 755.5C115 765.6 117.1 767.9 125 780.4C133.9 794.7 138.8 800.9 153 815.3C163.8 826.5 167.9 829.8 183.5 840.3C204.3 854.2 210.5 860.1 217.9 872.3C233.1 897.5 252.1 945.6 263.4 987.5C266.4 998.4 269.6 1007.3 273.5 1015.5C280.8 1031 287 1045.8 287 1047.9C287 1048.8 285.4 1051.7 283.5 1054.4C279 1060.8 278.6 1067.2 282.6 1071.9C284 1073.6 285.6 1075 286.1 1075C286.7 1075 289.2 1073.4 291.8 1071.4L296.5 1067.9L298.3 1070.2C303.9 1077 312.1 1098.5 318.2 1122.4C320.9 1132.7 321.4 1136.4 321.5 1147.5L321.6 1160.5L329.5 1184.2C338.3 1210.5 338 1207.5 333 1221.3C330.5 1228.4 331 1230.5 335.7 1232C338.8 1233.1 339.5 1233 342.1 1231.1C343.6 1230 345.2 1229 345.4 1229C346.5 1229 349.8 1236.7 351 1242C353.9 1254.4 359.6 1260.3 379.9 1271.5L395.3 1280.1L402.2 1279.8L409 1279.5L403.1 1271.6C399.8 1267.2 394.8 1259.5 391.9 1254.3C388.9 1249.2 384 1242.2 380.9 1238.7C376.9 1234.2 373 1227.9 367 1216.1L358.6 1199.6L357.6 1187.3C356.7 1175.4 356.6 1175.1 354.5 1175.6C352.6 1176.1 352 1175.5 350.7 1172.2C348 1165.4 346.2 1156.9 344.5 1143C343.7 1135.6 342.5 1127.1 341.9 1124.2C341.3 1121.2 334.3 1100.8 326.4 1078.7C313 1041.4 312 1038 312 1031.5C312 1023.5 314.9 1003 317.9 989.2C320.4 977.6 319.9 975.3 315.3 978.5C311.7 981 310.4 978 308.9 963.8C308.4 958.2 306.2 947.9 304 940.2C294.1 905.3 292 878.7 297.9 861.2C300.1 854.9 299.9 853.9 297.2 856.3C294.3 858.9 293.4 858.4 291.6 852.8C288.8 843.9 287.7 834.6 288.9 828.8C290 823.7 290 823.6 287 820.8C282.6 816.8 281.1 812.5 280 799.9C278.8 785.8 276.9 780 272.3 776C268.9 773 268.7 772.9 266.8 774.7C262.2 778.9 261.7 781.3 263.1 794.3C264.2 805.2 264.2 806.4 262.7 807.5C260 809.5 260.6 811.8 267 824.5L273.1 836.5L275.5 859.1C278.4 886.8 280.1 899.4 284.5 926.5C287.8 946.8 289.1 953.6 294.4 978C297.6 993.1 298.5 1002.4 297.1 1007.6C295.6 1013.3 293.6 1014.8 290.9 1012.4C288.2 1010 282.7 998.1 280.5 990C277 976.8 249.9 900.9 246 893.1C239.3 879.7 236.7 870.6 237.3 862.7C237.7 856.6 237.4 855.3 234.8 850.5C230.9 843.3 228.8 832.7 229.1 821.2C229.3 812.6 229.1 811.8 227 810.3C222.9 807.4 221.8 810.1 220.9 826C219.9 843.7 219.8 844 215.5 844C213 844 210 842.5 204.3 838.5C200 835.5 193.1 830.7 189 827.9C164.2 810.7 147.3 794.5 140.1 781C137.3 775.8 136.8 773.5 135.5 759.9C132.2 726.5 127.3 710.5 117.3 700.8C112.2 695.9 104.6 692.7 102.7 694.7Z" fill="#05192D"/>
<path d="M547.2 1209C544 1210.4 543.5 1212.5 545.3 1217.3C552.3 1235.9 565.3 1269.6 567.4 1274.2L570 1280H580C585.5 1280 590 1279.8 590 1279.4C590 1279.1 587.1 1273.5 583.5 1267C577.5 1256.2 576.6 1253.7 573.4 1239.8C569.1 1221.1 566.5 1212.7 564.2 1210.7C562.1 1208.8 550.4 1207.6 547.2 1209Z" fill="#05192D"/>
</g>
<defs>
<clipPath id="clip0">
<rect width="1280" height="1280" fill="white"/>
</clipPath>
</defs>
</svg>
